<svg width="612" height="622" viewBox="0 0 612 622" fill="none" xmlns="http://www.w3.org/2000/svg">
<path d="M351.67 571.56C350.68 571.9 349.67 572.21 348.66 572.49L347.14 572.89C346.98 572.94 346.93 572.96 346.83 573L345.71 573.42L343.45 574.24C341.94 574.76 340.43 575.28 338.9 575.76C335.86 576.71 332.79 577.58 329.71 578.35C323.55 579.87 317.35 581 311.15 581.78C304.95 582.58 298.76 582.96 292.62 583.09C286.48 583.19 280.39 582.99 274.37 582.5L282.41 487.8C286.39 488.15 290.32 488.48 294.21 488.74C298.1 489.04 301.94 489.24 305.76 489.45C309.58 489.65 313.36 489.8 317.14 489.91L322.8 490.06C323.74 490.06 324.69 490.1 325.63 490.11C326.1 490.11 326.57 490.11 327.04 490.12L327.75 490.14C327.75 490.14 327.9 490.14 327.89 490.14C327.53 490.22 327.18 490.32 326.82 490.41C326.11 490.61 325.41 490.83 324.72 491.08L351.66 571.53L351.67 571.56Z" fill="#F2F2F2"/>
<path d="M206.14 567.37C195.39 563.78 184.91 559.8 174.72 555.44L166.89 552.03C165.07 551.23 163.63 550.54 162.15 549.83C160.69 549.13 159.3 548.43 157.93 547.72C152.46 544.91 147.31 542.02 142.26 539L185.56 462.27C189.25 464.17 192.98 465.97 196.54 467.51C197.43 467.89 198.3 468.26 199.13 468.6C199.94 468.93 200.79 469.26 201.28 469.42L207.42 471.6C215.91 474.54 224.39 477.18 232.83 479.43L206.14 567.36V567.37Z" fill="#F2F2F2"/>
<path d="M86.9902 496.9C78.5902 488.89 70.6102 480.4 63.1502 471.42C55.7002 462.43 48.7702 452.96 42.4502 443.07L108.52 397.95C113.52 404.62 118.96 410.99 124.79 417.04C130.59 423.11 136.78 428.86 143.3 434.27L86.9902 496.9Z" fill="#F2F2F2"/>
<path d="M12.7801 379.37C9.31011 368.22 6.58011 356.88 4.59011 345.47C2.63011 334.06 1.40012 322.58 0.870117 311.13L71.1801 305.3C72.3101 313.84 73.9601 322.26 76.1101 330.48C78.2401 338.71 80.8801 346.74 84.0101 354.53L12.7701 379.37H12.7801Z" fill="#F2F2F2"/>
<path d="M5.81006 243.41C10.0101 221.34 16.5801 199.96 25.1701 179.58L81.1901 200.53C75.7301 217.73 72.0801 235.37 70.3801 253L5.82006 243.42L5.81006 243.41Z" fill="#F2F2F2"/>
<path d="M56.9302 121.83C69.4102 103.81 83.6902 87.1099 99.5902 72.1399L134.11 105.66C122.06 119.48 111.54 134.6 102.69 150.56L56.9302 121.83Z" fill="#F2F2F2"/>
<path d="M151.94 33.05C161.39 27.6 171.18 22.74 181.24 18.54L185.03 17L189.02 15.44C191.93 14.36 194.47 13.55 197.12 12.72C202.36 11.1 207.56 9.71996 212.77 8.45996L222.86 43.32C218.44 44.86 214.07 46.51 209.87 48.28C207.8 49.15 205.65 50.1 203.93 50.95L201.04 52.43L197.99 54.04C189.91 58.4 182.12 63.29 174.66 68.63L151.95 33.05H151.94Z" fill="#F2F2F2"/>
<path d="M275.88 0.199918C297.05 -0.320082 318.29 1.46992 338.95 5.86992L334.95 30.0699C316.02 27.9399 296.88 28.2199 278.04 30.5299L275.89 0.199918H275.88Z" fill="#F2F2F2"/>
<path d="M398.28 26.8699L401.75 28.6899L405.1 30.4999C407.35 31.7199 409.61 32.9599 411.85 34.2499C416.34 36.8099 420.78 39.4799 425.13 42.2999C433.84 47.9299 442.21 54.1199 450.08 60.8999L441.86 71.3099C433.95 65.6899 425.64 60.6599 417.03 56.1799C412.72 53.9299 408.34 51.8199 403.9 49.8199C401.68 48.8099 399.44 47.8399 397.18 46.8699L393.75 45.4199L390.41 44.0499L398.28 26.8999V26.8699Z" fill="#F2F2F2"/>
<path d="M488.3 109.43C489.42 111.89 490.46 114.38 491.41 116.9C492.33 119.43 493.17 121.99 493.92 124.56C494.65 127.14 495.28 129.74 495.81 132.36C496.32 134.98 496.75 137.61 497.01 140.25C495.96 137.81 494.9 135.4 493.78 133.03C492.67 130.66 491.51 128.32 490.28 126.03C489.08 123.73 487.8 121.47 486.47 119.27C485.17 117.05 483.79 114.87 482.36 112.75L488.3 109.45V109.43Z" fill="#F2F2F2"/>
<path opacity="0.87" d="M333.7 399.53C321.51 401.02 311.28 405.83 308.95 415.62C306.08 427.72 314.41 434.14 326.28 440.9L392.75 479.85C393.39 480.23 394 480.55 394.61 480.88L416.83 388.41L333.69 399.53H333.7Z" fill="#CCCCCC"/>
<path opacity="0.87" d="M508.13 537.71L416.33 515.65C416.34 516.42 416.37 517.22 416.42 518.07L420.84 593.27C421.56 607.45 423.38 618.37 435.64 621.29C445.29 623.58 453.95 617 462 605.32L508.13 537.7V537.71Z" fill="#CCCCCC"/>
<path d="M549.03 477.77L602.94 398.75C606.81 393.26 609.42 388.16 610.5 383.62C612.56 374.93 608.46 368.26 599.91 366.23C595.37 365.15 589.61 365.33 583 366.17L482.1 379.67L416.83 388.4L394.61 480.87C397.08 482.18 399.26 483.09 401.34 483.53C404.97 484.3 408.32 483.7 412.44 481.39L590.37 379.88C592.5 378.72 594.47 379.42 595.48 380.85C596.59 382.45 596.16 384.65 594.16 386.02L423.86 499.93C420.06 502.48 417.97 505.08 416.99 508.74C416.48 510.68 416.27 512.93 416.32 515.65L508.12 537.71L549.02 477.77H549.03Z" fill="#F2F2F2"/>
</svg>
