<svg width="41" height="34" viewBox="0 0 41 34" fill="none" xmlns="http://www.w3.org/2000/svg">
<path d="M28.4801 30.1023C28.1648 30.1023 27.8942 29.9893 27.6683 29.7635C27.4425 29.5376 27.3295 29.267 27.3295 28.9517C27.3295 28.6364 27.4425 28.3658 27.6683 28.1399C27.8942 27.9141 28.1648 27.8011 28.4801 27.8011C28.7955 27.8011 29.0661 27.9141 29.2919 28.1399C29.5178 28.3658 29.6307 28.6364 29.6307 28.9517C29.6307 29.1605 29.5774 29.3523 29.4709 29.527C29.3686 29.7017 29.2301 29.8423 29.0554 29.9489C28.8849 30.0511 28.6932 30.1023 28.4801 30.1023ZM33.4371 30.1023C33.1218 30.1023 32.8512 29.9893 32.6254 29.7635C32.3995 29.5376 32.2866 29.267 32.2866 28.9517C32.2866 28.6364 32.3995 28.3658 32.6254 28.1399C32.8512 27.9141 33.1218 27.8011 33.4371 27.8011C33.7525 27.8011 34.0231 27.9141 34.2489 28.1399C34.4748 28.3658 34.5877 28.6364 34.5877 28.9517C34.5877 29.1605 34.5344 29.3523 34.4279 29.527C34.3256 29.7017 34.1871 29.8423 34.0124 29.9489C33.842 30.0511 33.6502 30.1023 33.4371 30.1023ZM38.3942 30.1023C38.0788 30.1023 37.8082 29.9893 37.5824 29.7635C37.3565 29.5376 37.2436 29.267 37.2436 28.9517C37.2436 28.6364 37.3565 28.3658 37.5824 28.1399C37.8082 27.9141 38.0788 27.8011 38.3942 27.8011C38.7095 27.8011 38.9801 27.9141 39.206 28.1399C39.4318 28.3658 39.5447 28.6364 39.5447 28.9517C39.5447 29.1605 39.4915 29.3523 39.3849 29.527C39.2827 29.7017 39.1442 29.8423 38.9695 29.9489C38.799 30.0511 38.6072 30.1023 38.3942 30.1023Z" fill="#244D88"/>
<path d="M2.30493 29.7192L6.4502 24.789C6.84958 24.307 6.91844 24.1968 7.0837 23.6873L7.38667 22.7508L5.16944 19.969L4.49462 23.0813L0.404438 27.929C-0.890099 29.4851 1.24451 31 2.30493 29.7192ZM12.3858 29.306C13.2396 31.0276 15.7736 29.9672 14.8509 28.0942L12.0415 22.4065C11.8211 21.9795 11.532 21.5113 11.2703 21.1395L9.49374 18.6193L9.61768 18.2475C10.0859 16.8152 10.265 15.9614 10.3751 14.5429L10.6506 10.5629C10.7883 8.67615 9.67278 7.2439 7.73096 7.2439C6.28494 7.2439 5.29339 7.9738 3.95753 9.2821L1.85046 11.3616C1.16188 12.0364 0.941533 12.5873 0.872675 13.4825L0.624785 16.7325C0.555927 17.5589 1.01039 18.1373 1.76784 18.1649C2.53904 18.2199 3.00728 17.7655 3.07614 16.8841L3.39289 13.3172L4.39822 12.4083C4.77005 12.0778 5.2383 12.2981 5.22452 12.6699L5.00418 15.6859C4.88023 17.2145 5.2383 17.9445 6.28494 19.2527L9.08059 22.7508C9.35603 23.1088 9.38357 23.2466 9.50751 23.4669L12.3858 29.306ZM17.1783 12.6148H13.9971L12.0002 10.3976L11.7661 13.7166L12.5648 14.5154C13.0055 14.9561 13.3911 15.0937 14.2174 15.0937H17.1783C18.0047 15.0937 18.5555 14.6255 18.5555 13.8543C18.5555 13.1106 17.9909 12.6148 17.1783 12.6148ZM9.27339 6.00445C10.926 6.00445 12.2618 4.65482 12.2618 3.00223C12.2618 1.33585 10.926 0 9.27339 0C7.60702 0 6.27117 1.33585 6.27117 3.00223C6.27117 4.65482 7.60702 6.00445 9.27339 6.00445Z" fill="#244D88"/>
</svg>
