<svg width="35" height="35" viewBox="0 0 35 35" fill="none" xmlns="http://www.w3.org/2000/svg">
<path d="M2.04386 34.3254C2.50524 34.3254 2.94937 34.1694 3.5401 33.8344L11.8794 29.0848L21.0811 34.4631C21.7106 34.821 22.3876 35 23.0387 35C23.651 35 24.259 34.844 24.7462 34.5503L33.4434 29.351C34.4955 28.7223 35 27.7586 35 26.5058V2.8681C35 1.4547 34.2627 0.669988 32.9346 0.669988C32.4905 0.669988 32.0291 0.826013 31.4383 1.16101L22.6808 6.38324L13.6214 0.472663C13.1385 0.160614 12.5477 0 11.957 0C11.3663 0 10.7367 0.156025 10.2322 0.472663L1.55661 5.66737C0.482937 6.29605 0 7.25974 0 8.48958V32.1273C0 33.5407 0.737341 34.3254 2.04386 34.3254ZM24.3193 31.0306V9.14121L31.5203 4.95149C31.6065 4.9056 31.6884 4.85971 31.7531 4.85971C31.8782 4.85971 31.9428 4.95149 31.9428 5.10751V25.7028C31.9428 26.1295 31.7962 26.4416 31.4168 26.6894L25.1213 30.5441C24.8669 30.7231 24.5953 30.8791 24.3193 31.0351V31.0306ZM10.6548 25.8771L3.47542 30.0439C3.38918 30.0898 3.30726 30.1357 3.24258 30.1357C3.09597 30.1357 3.03129 30.0439 3.03129 29.8879V9.32018C3.03129 8.8934 3.19946 8.58136 3.57891 8.33355L10.0641 4.36869C10.2753 4.23561 10.4651 4.12089 10.6548 3.98781V25.8817V25.8771ZM13.7077 26.2121V4.43752C13.8758 4.54766 14.0655 4.66238 14.2337 4.77252L21.288 9.34312V30.6543C21.0336 30.4982 20.7835 30.3652 20.5291 30.2045L13.7077 26.2167V26.2121Z" fill="#244D88"/>
</svg>
