<svg width="35" height="35" viewBox="0 0 35 35" fill="none" xmlns="http://www.w3.org/2000/svg">
<path d="M9.77777 11.4653C9.39339 11.4653 9.16425 11.6817 9.16425 12.0529V22.9516C9.16425 23.3228 9.39339 23.5392 9.77777 23.5392H25.4658C25.8502 23.5392 26.0671 23.3228 26.0671 22.9516V12.0529C26.0671 11.6817 25.8502 11.4653 25.4658 11.4653H9.77777ZM10.4504 12.5102H24.7784C24.9336 12.5102 25.0199 12.5938 25.0199 12.7388V22.2558C25.0199 22.4107 24.9361 22.4967 24.7784 22.4967H10.4504C10.2952 22.4967 10.2213 22.4132 10.2213 22.2558V12.7364C10.2213 12.5913 10.2927 12.5077 10.4504 12.5077V12.5102ZM25.249 21.2724L21.0381 17.2994C20.7129 17.0118 20.3408 16.879 19.9663 16.879C19.5696 16.879 19.2074 16.9872 18.8846 17.2871L15.6494 20.1808L14.3386 19.0032C14.038 18.7278 13.6881 18.6073 13.3628 18.6073C13.0376 18.6073 12.737 18.7278 12.4364 18.9909L9.66936 21.4642V22.1353C9.66936 22.8065 10.0537 23.072 10.6081 23.072H24.3127C24.8671 23.072 25.2515 22.809 25.2515 22.1353V21.2699L25.249 21.2724ZM14.4568 17.4666C15.3956 17.4666 16.1521 16.6995 16.1521 15.7628C16.1521 14.8261 15.3932 14.0713 14.4568 14.0713C13.5205 14.0713 12.7616 14.8384 12.7616 15.7628C12.7616 16.6872 13.5304 17.4666 14.4568 17.4666Z" fill="#244D88"/>
<path d="M7.27437 8.75119C6.78157 8.75119 6.45633 9.08801 6.45633 9.56742V25.425C6.45633 25.9167 6.78157 26.2535 7.27437 26.2535H27.9569C28.4497 26.2535 28.7749 25.9167 28.7749 25.425V9.56742C28.7749 9.08801 28.4497 8.75119 27.9569 8.75119H7.27437ZM8.4891 10.4918H26.752C26.9688 10.4918 27.0403 10.5631 27.0403 10.7795V24.2252C27.0403 24.4416 26.9688 24.5129 26.752 24.5129H8.4891C8.25995 24.5129 8.1885 24.4416 8.1885 24.2252V10.7795C8.1885 10.5631 8.25995 10.4918 8.4891 10.4918Z" fill="#244D88"/>
<path d="M1.62673 11.4916C2.68203 11.4916 3.24885 10.9067 3.24885 9.85195V5.82642C3.24885 4.14068 4.17051 3.26096 5.79263 3.26096H9.93088C10.9908 3.26096 11.5714 2.67601 11.5714 1.63969C11.5714 0.603369 10.9862 0 9.93088 0H5.74194C1.91705 0 0.00460829 1.88841 0.00460829 5.66522V9.84735C0.00460829 10.9021 0.589862 11.487 1.62673 11.487V11.4916ZM33.3779 11.4916C34.4378 11.4916 35 10.9067 35 9.85195V5.66522C35 1.88841 33.1106 0 29.2627 0H25.0783C24.0184 0 23.4378 0.584945 23.4378 1.63969C23.4378 2.69443 24.023 3.26096 25.0783 3.26096H29.2166C30.8387 3.26096 31.7604 4.13607 31.7604 5.82642V9.85195C31.7604 10.9067 32.3456 11.4916 33.3825 11.4916H33.3779ZM5.74194 34.9954H9.92627C10.9862 34.9954 11.5668 34.4104 11.5668 33.3741C11.5668 32.3378 10.9816 31.7344 9.92627 31.7344H5.78802C4.1659 31.7344 3.24424 30.8593 3.24424 29.169V25.1665C3.24424 24.0887 2.65899 23.5037 1.62212 23.5037C0.585253 23.5037 0 24.0887 0 25.1665V29.3256C0 33.1024 1.91244 34.9908 5.73733 34.9908L5.74194 34.9954ZM25.0691 34.9954H29.2535C33.1014 34.9954 34.9908 33.107 34.9908 29.3302V25.1711C34.9908 24.0933 34.4055 23.5084 33.3687 23.5084C32.3318 23.5084 31.7465 24.0933 31.7465 25.1711V29.1736C31.7465 30.8593 30.8249 31.739 29.2028 31.739H25.0645C24.0046 31.739 23.424 32.324 23.424 33.3787C23.424 34.4335 24.0092 35 25.0645 35L25.0691 34.9954Z" fill="#244D88"/>
</svg>
