<svg width="38" height="31" viewBox="0 0 38 31" fill="none" xmlns="http://www.w3.org/2000/svg">
<g clip-path="url(#clip0_627_805)">
<path d="M36.5967 5.31952C36.5967 7.8029 34.9035 9.8912 32.6035 10.4556V23.5498C32.6035 27.7265 31.8698 29.9841 31.2913 29.9841C30.7269 29.9841 29.9791 27.7123 29.9791 23.5498V10.4556C27.6791 9.8771 26 7.8029 26 5.31952C26 2.39873 28.3564 0 31.2913 0C34.2403 0 36.5967 2.39873 36.5967 5.31952ZM27.9613 3.78152C27.9613 4.76922 28.8079 5.61584 29.7815 5.61584C30.7692 5.61584 31.5876 4.76922 31.5876 3.78152C31.5876 2.80792 30.7692 1.97542 29.7815 1.97542C28.8079 1.97542 27.9613 2.80792 27.9613 3.78152Z" fill="#244D88"/>
</g>
<path d="M2.48011 27.1023C2.16477 27.1023 1.89418 26.9893 1.66832 26.7635C1.44247 26.5376 1.32955 26.267 1.32955 25.9517C1.32955 25.6364 1.44247 25.3658 1.66832 25.1399C1.89418 24.9141 2.16477 24.8011 2.48011 24.8011C2.79545 24.8011 3.06605 24.9141 3.2919 25.1399C3.51776 25.3658 3.63068 25.6364 3.63068 25.9517C3.63068 26.1605 3.57741 26.3523 3.47088 26.527C3.36861 26.7017 3.23011 26.8423 3.0554 26.9489C2.88494 27.0511 2.69318 27.1023 2.48011 27.1023ZM7.43714 27.1023C7.1218 27.1023 6.85121 26.9893 6.62536 26.7635C6.3995 26.5376 6.28658 26.267 6.28658 25.9517C6.28658 25.6364 6.3995 25.3658 6.62536 25.1399C6.85121 24.9141 7.1218 24.8011 7.43714 24.8011C7.75249 24.8011 8.02308 24.9141 8.24893 25.1399C8.47479 25.3658 8.58771 25.6364 8.58771 25.9517C8.58771 26.1605 8.53445 26.3523 8.42791 26.527C8.32564 26.7017 8.18715 26.8423 8.01243 26.9489C7.84197 27.0511 7.65021 27.1023 7.43714 27.1023ZM12.3942 27.1023C12.0788 27.1023 11.8082 26.9893 11.5824 26.7635C11.3565 26.5376 11.2436 26.267 11.2436 25.9517C11.2436 25.6364 11.3565 25.3658 11.5824 25.1399C11.8082 24.9141 12.0788 24.8011 12.3942 24.8011C12.7095 24.8011 12.9801 24.9141 13.206 25.1399C13.4318 25.3658 13.5447 25.6364 13.5447 25.9517C13.5447 26.1605 13.4915 26.3523 13.3849 26.527C13.2827 26.7017 13.1442 26.8423 12.9695 26.9489C12.799 27.0511 12.6072 27.1023 12.3942 27.1023Z" fill="#244D88"/>
<defs>
<clipPath id="clip0_627_805">
<rect width="11.1188" height="31" fill="white" transform="translate(26)"/>
</clipPath>
</defs>
</svg>
